<svg xmlns="http://www.w3.org/2000/svg" viewBox="0 0 1600 28" preserveAspectRatio="none"><path d="M0 0 L1600 0 L1600.0 10.0 L1594.0 7.1 L1578.0 13.5 L1567.0 14.5 L1559.0 14.0 L1551.0 14.0 L1541.0 14.1 L1531.0 8.1 L1524.0 13.7 L1516.0 10.8 L1501.0 7.4 L1487.0 11.7 L1476.0 10.8 L1460.0 11.6 L1447.0 12.6 L1435.0 8.2 L1425.0 12.2 L1420.0 6.3 L1415.0 14.3 L1410.0 18.2 L1398.0 9.1 L1391.0 8.4 L1380.0 10.1 L1367.0 13.1 L1353.0 14.3 L1340.0 6.2 L1329.0 14.7 L1321.0 10.7 L1308.0 7.9 L1294.0 8.3 L1281.0 11.7 L1268.0 11.0 L1255.0 6.8 L1239.0 14.5 L1227.0 10.7 L1211.0 7.3 L1199.0 12.2 L1189.0 13.2 L1178.0 8.0 L1173.0 9.8 L1160.0 16.8 L1155.0 8.4 L1145.0 10.8 L1136.0 14.1 L1128.0 14.3 L1113.0 12.5 L1107.0 8.9 L1095.0 13.2 L1082.0 11.0 L1071.0 11.6 L1063.0 9.5 L1047.0 6.8 L1039.0 13.6 L1028.0 11.5 L1015.0 10.9 L1005.0 17.2 L993.0 8.3 L981.0 12.2 L975.0 11.9 L962.0 20.5 L957.0 8.1 L948.0 7.7 L936.0 6.2 L922.0 9.2 L908.0 6.4 L894.0 15.3 L880.0 10.4 L867.0 13.5 L859.0 21.2 L850.0 12.4 L845.0 10.5 L838.0 14.3 L824.0 13.9 L816.0 11.7 L808.0 8.9 L800.0 11.9 L790.0 7.8 L776.0 9.3 L771.0 14.3 L756.0 24.3 L748.0 11.4 L739.0 10.7 L733.0 10.0 L721.0 14.4 L710.0 13.9 L701.0 20.3 L696.0 12.0 L682.0 13.8 L677.0 13.8 L671.0 9.2 L661.0 12.3 L645.0 6.4 L629.0 23.3 L622.0 6.6 L610.0 23.5 L601.0 10.3 L596.0 14.5 L582.0 11.9 L572.0 9.3 L566.0 10.8 L556.0 6.5 L548.0 20.2 L540.0 6.7 L526.0 11.0 L514.0 14.8 L498.0 8.6 L486.0 9.8 L477.0 8.1 L468.0 7.0 L462.0 11.4 L450.0 7.8 L437.0 7.4 L429.0 13.4 L421.0 7.6 L410.0 10.4 L396.0 11.6 L386.0 8.2 L371.0 15.7 L362.0 18.6 L354.0 22.7 L340.0 7.7 L332.0 8.7 L318.0 13.8 L309.0 9.8 L298.0 9.8 L291.0 10.6 L279.0 7.6 L267.0 6.1 L261.0 19.3 L250.0 15.4 L235.0 6.7 L224.0 9.4 L212.0 7.9 L204.0 15.7 L193.0 9.6 L187.0 19.0 L179.0 12.4 L173.0 15.0 L162.0 6.8 L147.0 11.8 L139.0 11.3 L127.0 6.3 L113.0 16.8 L100.0 11.9 L86.0 14.7 L75.0 11.7 L59.0 18.6 L47.0 11.5 L32.0 7.7 L24.0 10.1 L12.0 13.8 L0.0 10.0 Z" fill="#000"/></svg>